#!OML:ASF E:\Style6\Style6.ASF
:FULLY-SPECIFIED
:DEGREES
1279
root 0.205068 17.8067 1.3001 13.2401 -4.95263 -2.33429
lowerback 2.65133 -2.40281 1.30722
upperback -9.40873 -2.85575 3.36355
thorax -11.4528 -1.32757 3.25891
lowerneck -13.7254 1.80594 5.09657
upperneck 21.0404 3.99712 -11.6803
head 9.21045 1.02772 -4.42009
rclavicle -2.40032e-014 -1.59028e-014
rhumerus 8.69117 -30.7594 12.3794
rradius 58.0067
rwrist 33.0004
rhand 26.5003 2.51722
rfingers 7.12502
rthumb 50.5349 -18.4201
lclavicle -2.40032e-014 -1.59028e-014
lhumerus -102.38 -53.6506 120.197
lradius 91.8106
lwrist 30.543
lhand 7.05584 8.84838
lfingers 7.12502
lthumb 32.3288 35.9878
rfemur -21.8492 -7.98118 22.1059
rtibia 28.3153
rfoot -11.7258 2.78639
rtoes -9.26108
lfemur -22.2082 9.03264 -16.956
ltibia 31.9291
lfoot -15.5441 2.43403
ltoes -21.743
1280
root 0.193026 17.8219 1.30978 13.3028 -4.798 -2.42902
lowerback 2.53921 -2.4058 1.27361
upperback -9.48735 -2.85545 3.45739
thorax -11.4687 -1.31893 3.37722
lowerneck -13.7188 1.77356 4.94694
upperneck 20.9581 3.93085 -11.4696
head 9.16717 1.00911 -4.32446
rclavicle 3.50358e-014 -1.43125e-014
rhumerus 8.4047 -30.8532 12.2307
rradius 57.7986
rwrist 33.0668
rhand 26.5346 2.61713
rfingers 7.12502
rthumb 50.5663 -18.3031
lclavicle 3.50358e-014 -1.43125e-014
lhumerus -102.739 -54.3516 120.277
lradius 91.9558
lwrist 30.8721
lhand 7.17361 8.91254
lfingers 7.12502
lthumb 32.4409 36.0291
rfemur -21.5456 -7.90886 22.2581
rtibia 27.7407
rfoot -11.5105 2.58827
rtoes -9.35722
lfemur -21.9856 8.61221 -16.7687
ltibia 31.4667
lfoot -15.2909 2.87945
ltoes -22.9797
1281
root 0.181959 17.8386 1.3188 13.3538 -4.62519 -2.55585
lowerback 2.3832 -2.40708 1.32797
upperback -9.50975 -2.85023 3.5257
thorax -11.3991 -1.31881 3.41199
lowerneck -13.7663 1.74624 4.87154
upperneck 20.8311 3.85583 -11.2869
head 9.11996 0.98897 -4.25184
rclavicle -5.02925e-014 4.53229e-014
rhumerus 8.15397 -31.1149 11.9791
rradius 57.5927
rwrist 33.3578
rhand 26.5264 2.92793
rfingers 7.12502
rthumb 50.5588 -17.9964
lclavicle -5.02925e-014 4.53229e-014
lhumerus -103.011 -55.1835 120.236
lradius 92.077
lwrist 31.1703
lhand 7.27643 8.91747
lfingers 7.12502
lthumb 32.5388 36.0139
rfemur -21.2226 -7.79151 22.4454
rtibia 27.1743
rfoot -11.2962 2.37281
rtoes -8.889
lfemur -21.7596 8.14556 -16.5283
ltibia 31.0086
lfoot -15.0417 3.22429
ltoes -23.3491
1282
root 0.170587 17.8564 1.32771 13.3818 -4.44617 -2.5766
lowerback 2.27028 -2.43458 1.2696
upperback -9.54805 -2.89066 3.57153
thorax -11.3671 -1.33124 3.49419
lowerneck -13.8605 1.74119 4.84368
upperneck 20.7677 3.80541 -11.1019
head 9.10665 0.981589 -4.18603
rclavicle 3.75703e-014 -2.70347e-014
rhumerus 7.92895 -31.2995 11.7695
rradius 57.4399
rwrist 33.5711
rhand 26.417 3.20869
rfingers 7.12502
rthumb 50.4589 -17.7697
lclavicle 3.75703e-014 -2.70347e-014
lhumerus -103.343 -55.9445 120.214
lradius 92.1627
lwrist 31.4033
lhand 7.03992 8.84523
lfingers 7.12502
lthumb 32.3137 35.9878
rfemur -20.8935 -7.68576 22.5154
rtibia 26.6129
rfoot -11.1162 2.09699
rtoes -8.69621
lfemur -21.5278 7.65374 -16.4022
ltibia 30.5649
lfoot -14.7841 3.57124
ltoes -23.7109
1283
root 0.161446 17.8696 1.33719 13.3798 -4.32214 -2.57991
lowerback 2.21671 -2.47793 1.20529
upperback -9.62205 -2.94945 3.6295
thorax -11.4106 -1.34998 3.60109
lowerneck -13.7937 1.76025 4.86504
upperneck 20.6039 3.77853 -10.9455
head 9.0321 0.992827 -4.1326
rclavicle 3.72224e-014 2.46493e-014
rhumerus 7.80948 -31.3451 11.5794
rradius 57.3002
rwrist 33.6444
rhand 26.2823 3.53544
rfingers 7.12502
rthumb 50.3358 -17.5092
lclavicle 3.72224e-014 2.46493e-014
lhumerus -103.779 -56.5123 120.248
lradius 92.2043
lwrist 31.6349
lhand 6.73075 8.72341
lfingers 7.12502
lthumb 32.0194 35.9255
rfemur -20.5515 -7.54349 22.5379
rtibia 26.0851
rfoot -10.9467 1.91046
rtoes -7.69221
lfemur -21.252 7.2091 -16.3064
ltibia 30.1177
lfoot -14.5466 3.91283
ltoes -24.0568
1284
root 0.15451 17.8831 1.34927 13.3702 -4.21503 -2.61229
lowerback 2.163 -2.52327 1.18406
upperback -9.69294 -3.00429 3.7216
thorax -11.4513 -1.36878 3.72044
lowerneck -13.6664 1.78623 4.89674
upperneck 20.3833 3.75954 -10.8049
head 8.92823 1.00961 -4.0841
rclavicle 5.51627e-015 -3.49861e-014
rhumerus 7.74762 -31.4188 11.4332
rradius 57.2191
rwrist 33.639
rhand 26.422 3.605
rfingers 7.12502
rthumb 50.4634 -17.371
lclavicle 5.51627e-015 -3.49861e-014
lhumerus -104.099 -56.9978 120.233
lradius 92.1987
lwrist 31.854
lhand 6.727 8.65514
lfingers 7.12502
lthumb 32.0158 35.8579
rfemur -20.2168 -7.37521 22.5802
rtibia 25.6137
rfoot -10.8232 1.67169
rtoes -6.93361
lfemur -20.965 6.86059 -16.192
ltibia 29.6942
lfoot -14.3747 4.09853
ltoes -23.895
1285
root 0.148953 17.8967 1.3614 13.3653 -4.11939 -2.56139
lowerback 2.10604 -2.56722 1.09225
upperback -9.76048 -3.06354 3.81034
thorax -11.4819 -1.38354 3.87556
lowerneck -13.5858 1.7761 4.76511
upperneck 20.1959 3.70491 -10.5528
head 8.83696 1.00606 -3.97415
rclavicle -3.71727e-014 2.46493e-014
rhumerus 7.72886 -31.5247 11.3369
rradius 57.1604
rwrist 33.6361
rhand 26.6794 3.49308
rfingers 7.12502
rthumb 50.6984 -17.3551
lclavicle -3.71727e-014 2.46493e-014
lhumerus -104.31 -57.479 120.159
lradius 92.189
lwrist 32.0459
lhand 6.85939 8.62869
lfingers 7.12502
lthumb 32.1418 35.8061
rfemur -19.9118 -7.23293 22.5298
rtibia 25.1875
rfoot -10.7183 1.4498
rtoes -6.34041
lfemur -20.7032 6.47349 -16.169
ltibia 29.313
lfoot -14.2475 4.24849
ltoes -23.197
1286
root 0.143241 17.9093 1.37074 13.4168 -4.05603 -2.54978
lowerback 2.01002 -2.57577 1.04412
upperback -9.82743 -3.07345 3.88533
thorax -11.4937 -1.37945 3.98315
lowerneck -13.6193 1.74386 4.68904
upperneck 20.0656 3.61678 -10.3341
head 8.78547 0.983255 -3.89169
rclavicle 5.54609e-014 -3.73715e-014
rhumerus 7.7236 -31.5972 11.2419
rradius 57.0949
rwrist 33.7351
rhand 26.6947 3.41028
rfingers 7.12502
rthumb 50.7123 -17.4303
lclavicle 5.54609e-014 -3.73715e-014
lhumerus -104.653 -58.0263 120.237
lradius 92.1621
lwrist 32.2354
lhand 6.77044 8.58405
lfingers 7.12502
lthumb 32.0572 35.7785
rfemur -19.6998 -7.02824 22.5286
rtibia 24.7889
rfoot -10.5962 1.17051
rtoes -5.32281
lfemur -20.5225 6.10305 -16.1211
ltibia 28.9517
lfoot -14.0622 4.47644
ltoes -22.9589
1287
root 0.137241 17.9209 1.37992 13.4262 -4.02914 -2.6203
lowerback 1.95925 -2.57574 1.07166
upperback -9.87344 -3.06319 3.97571
thorax -11.5138 -1.37137 4.06476
lowerneck -13.634 1.71954 4.70882
upperneck 19.9252 3.53136 -10.1769
head 8.73016 0.963389 -3.84678
rclavicle 6.65929e-015 2.38542e-015
rhumerus 7.79688 -31.5965 11.1468
rradius 57.0467
rwrist 33.7667
rhand 26.6507 3.28209
rfingers 7.12502
rthumb 50.6722 -17.5804
lclavicle 6.65929e-015 2.38542e-015
lhumerus -104.977 -58.483 120.318
lradius 92.1488
lwrist 32.4851
lhand 6.85696 8.64029
lfingers 7.12502
lthumb 32.1395 35.8182
rfemur -19.4683 -6.73593 22.6084
rtibia 24.453
rfoot -10.5372 0.770172
rtoes -5.44081
lfemur -20.2832 5.78158 -15.9863
ltibia 28.5878
lfoot -13.8855 4.73702
ltoes -23.082
